<svg width="392" height="475" viewBox="0 0 392 475" fill="none" xmlns="http://www.w3.org/2000/svg">
<g id="coinguy">
<g id="arm">
<path id="Vector" d="M291.268 340.817C291.268 340.817 352.495 343.982 338.234 363.256C323.973 382.53 286.499 351.95 286.499 351.95L291.268 340.817Z" fill="#FFB8B8"/>
<path id="Vector_2" d="M178.436 157.233L190.899 160.348C190.899 160.348 198.169 182.158 203.361 201.89C208.554 221.622 218.939 280.819 218.939 280.819L299.454 337.246L289.851 358.728L182.591 316.455L158.704 222.661L178.436 157.233Z" fill="#575A89"/>
<path id="Vector_3" opacity="0.2" d="M164.609 228.371L202.049 298.844L225.81 328.691L188.516 314.08L164.609 228.371Z" fill="black"/>
</g>
<g id="body">
<path id="Vector_4" d="M97.4302 94.9204L94.3146 140.616L133.779 193.582L153.511 143.732C153.511 143.732 135.856 132.308 146.242 108.421L97.4302 94.9204Z" fill="#F1A8A8"/>
<path id="Vector_5" d="M206.996 368.576C206.996 368.576 220.497 404.925 222.574 429.85C224.651 454.775 226.729 474.507 226.729 474.507H163.378L150.915 455.813V474.507H77.1787C77.1787 474.507 56.4079 407.002 64.7162 398.693C73.0246 390.385 151.954 355.075 151.954 355.075L206.996 368.576Z" fill="#2F2E41"/>
<path id="Vector_6" d="M126.121 128.051C147.917 128.051 163.978 100.92 167.012 78.3037C167.012 56.5081 171.234 23.6293 127.548 23.6293C88.0834 23.6293 86.8215 57.139 86.8215 78.9347C89.8418 101.866 104.326 128.051 126.121 128.051Z" fill="#FFB8B8"/>
<path id="Vector_7" d="M212.706 377.402C212.706 386.753 186.742 401.29 186.742 401.29V406.483L176.357 411.675L153.511 365.982L147.283 415.827C147.283 415.827 101.584 423.102 87.0468 415.827C72.5035 408.558 65.235 411.675 44.4643 404.407C23.6936 397.138 52.7738 299.512 52.7738 299.512L32.0031 148.924L77.3807 126.236L79.772 125.037L86.012 123.889L95.5772 122.122L127.547 143.732L130.121 157.234L131.705 165.544L140.008 156.193L146.28 135.567L190.9 160.351L178.439 260.047C178.439 260.047 212.706 368.058 212.706 377.402Z" fill="#575A89"/>
<path id="Vector_8" d="M60.0428 409.598C60.0428 409.598 107.816 448.024 84.9678 455.294C62.1199 462.564 49.6574 415.829 49.6574 415.829L60.0428 409.598Z" fill="#FFB8B8"/>
<path id="Vector_9" d="M42.3876 151.002L32.0022 148.924C32.0022 148.924 16.4241 157.233 15.3856 173.849C14.347 190.466 0.846008 306.783 0.846008 306.783L44.4647 424.138L79.7751 410.637L45.5032 300.551L71.4667 205.006L42.3876 151.002Z" fill="#575A89"/>
<path id="Vector_10" d="M132.115 182.695C134.206 182.695 135.901 181 135.901 178.909C135.901 176.818 134.206 175.123 132.115 175.123C130.024 175.123 128.329 176.818 128.329 178.909C128.329 181 130.024 182.695 132.115 182.695Z" fill="#2F2E41"/>
<path id="Vector_11" d="M132.115 207.302C134.206 207.302 135.901 205.607 135.901 203.516C135.901 201.425 134.206 199.73 132.115 199.73C130.024 199.73 128.329 201.425 128.329 203.516C128.329 205.607 130.024 207.302 132.115 207.302Z" fill="#2F2E41"/>
<path id="Vector_12" d="M132.746 230.647C134.837 230.647 136.532 228.952 136.532 226.861C136.532 224.77 134.837 223.075 132.746 223.075C130.655 223.075 128.96 224.77 128.96 226.861C128.96 228.952 130.655 230.647 132.746 230.647Z" fill="#2F2E41"/>
<path id="Vector_13" d="M79.4313 44.7743L82.3657 42.8991C77.9099 58.2222 86.4332 75.0513 86.4332 75.0513L89.3374 60.7093L95.4148 60.0733L102.417 61.3454C102.417 61.3454 112.126 63.4066 122.786 62.6176C131.379 61.9815 142.822 61.045 147.157 57.2438C149.075 55.5618 153.718 51.4551 153.718 51.4551C153.718 55.8716 160.66 60.7093 160.66 60.7093L162.252 69.9779C162.252 72.9223 167.47 75.0513 167.47 75.0513C167.47 75.0513 169.646 65.3423 170.152 61.3454C173.442 49.5468 173.442 44.7743 173.442 44.7743V37.8105L170.152 34.2237L165.434 20.0002C160.361 9.24055 152.347 19.3959 145.313 11.2701C131.931 -4.18775 117.211 1.70092 117.211 1.70092L118.141 5.14538C79.4313 8.55077 79.4313 44.7743 79.4313 44.7743Z" fill="#2F2E41"/>
</g>
<g id="coin">
<path id="Vector_14" d="M328.905 317.047C363.752 317.047 392 288.799 392 253.953C392 219.107 363.752 190.858 328.905 190.858C294.059 190.858 265.811 219.107 265.811 253.953C265.811 288.799 294.059 317.047 328.905 317.047Z" fill="#46486E"/>
<path id="Vector_15" opacity="0.1" d="M328.905 308.214C358.873 308.214 383.167 283.92 383.167 253.953C383.167 223.985 358.873 199.691 328.905 199.691C298.938 199.691 274.644 223.985 274.644 253.953C274.644 283.92 298.938 308.214 328.905 308.214Z" fill="#EFD0E1"/>
<path id="Vector_16" d="M326.305 285.972V278.074C322.313 277.996 318.183 276.588 315.774 274.634L317.426 269.395C320.289 271.54 323.761 272.718 327.338 272.757C332.225 272.757 335.529 269.551 335.529 265.094C335.529 260.793 332.844 258.135 327.751 255.789C320.73 252.661 316.394 249.064 316.394 242.261C316.394 235.771 320.455 230.845 326.787 229.672V221.774H331.055V229.359C334.237 229.403 337.341 230.352 340.003 232.096L338.282 237.257C335.729 235.509 332.703 234.582 329.609 234.598C324.309 234.598 322.313 238.195 322.313 241.323C322.313 245.389 324.86 247.422 330.848 250.237C337.938 253.521 341.517 257.587 341.517 264.546C341.517 270.724 337.732 276.51 330.642 277.839V285.972H326.305Z" fill="#F48585"/>
</g>
</g>
</svg>
